<svg width="24" height="24" viewBox="0 0 24 24" fill="none" xmlns="http://www.w3.org/2000/svg">
<path d="M12.0062 14.7851L5.54417 8.25768L5.45288 8.17568C5.27607 8.04712 5.05996 7.98587 4.84275 8.00275C4.62554 8.01963 4.42125 8.11351 4.26599 8.26787C4.09564 8.44071 4 8.67468 4 8.91858C4 9.16247 4.09564 9.39645 4.26599 9.56929L11.3671 16.7423L11.4584 16.8243C11.6352 16.9529 11.8513 17.0141 12.0685 16.9973C12.2857 16.9804 12.49 16.8864 12.6453 16.7321L19.7464 9.55903L19.8276 9.46684C19.9386 9.30783 19.9987 9.11828 20 8.92371C20.0004 8.79988 19.9764 8.67719 19.9294 8.56283C19.8824 8.44847 19.8133 8.34477 19.7261 8.25768L19.6348 8.17568C19.458 8.04712 19.2419 7.98587 19.0247 8.00275C18.8075 8.01963 18.6032 8.11351 18.4479 8.26787L12.0062 14.7851Z" fill="white"/>
</svg>
