<svg width="24" height="24" viewBox="0 0 24 24" fill="none" xmlns="http://www.w3.org/2000/svg">
<path d="M11.9938 9.21486L18.4558 15.7423L18.5471 15.8243C18.7239 15.9529 18.94 16.0141 19.1573 15.9973C19.3745 15.9804 19.5787 15.8865 19.734 15.7321C19.9044 15.5593 20 15.3253 20 15.0814C20 14.8375 19.9044 14.6036 19.734 14.4307L12.6329 7.25768L12.5416 7.17568C12.3648 7.04712 12.1487 6.98587 11.9315 7.00275C11.7143 7.01963 11.51 7.11357 11.3547 7.26793L4.25362 14.441L4.17244 14.5332C4.06142 14.6922 4.00125 14.8817 4 15.0763C3.99959 15.2001 4.02359 15.3228 4.07062 15.4372C4.11765 15.5515 4.18674 15.6552 4.27389 15.7423L4.36519 15.8243C4.54199 15.9529 4.75811 16.0141 4.97532 15.9973C5.19252 15.9804 5.39684 15.8865 5.5521 15.7321L11.9938 9.21486Z" fill="white"/>
</svg>
