<svg width="24" height="24" viewBox="0 0 24 24" fill="none" xmlns="http://www.w3.org/2000/svg">
<path fill-rule="evenodd" clip-rule="evenodd" d="M12 22C17.5228 22 22 17.5228 22 12C22 6.47715 17.5228 2 12 2C6.47715 2 2 6.47715 2 12C2 17.5228 6.47715 22 12 22ZM8.35928 15.8304C8.70275 15.9096 9.06084 15.9492 9.43354 15.9492C9.99625 15.9492 10.4859 15.8484 10.9024 15.6468C11.3263 15.4451 11.6515 15.1571 11.878 14.7827C12.1046 14.4083 12.2179 13.9691 12.2179 13.4651C12.2179 13.0186 12.1302 12.655 11.9548 12.3742C11.7867 12.0862 11.5346 11.8486 11.1984 11.6614C10.8696 11.4742 10.4165 11.287 9.83914 11.0997C9.5322 10.9917 9.29469 10.8981 9.12661 10.8189C8.95853 10.7397 8.82699 10.6461 8.73198 10.5381C8.64429 10.4301 8.60044 10.3005 8.60044 10.1493C8.60044 9.98369 8.64429 9.83968 8.73198 9.71728C8.82699 9.58767 8.95487 9.48687 9.11565 9.41486C9.27642 9.34286 9.45547 9.30686 9.65278 9.30686C9.80625 9.30686 9.95241 9.32486 10.0913 9.36086C10.2374 9.38966 10.3799 9.43647 10.5188 9.50127C10.6576 9.56607 10.7453 9.60567 10.7819 9.62007C10.9061 9.67048 11.0303 9.69568 11.1546 9.69568C11.33 9.69568 11.4761 9.63448 11.593 9.51207C11.71 9.38246 11.7684 9.22406 11.7684 9.03685C11.7684 8.89284 11.7173 8.75964 11.615 8.63723C11.52 8.51482 11.3811 8.41042 11.1984 8.32402C11.0157 8.22321 10.7928 8.14401 10.5297 8.0864C10.2666 8.0288 9.99625 8 9.71855 8C9.25085 8 8.81968 8.09 8.42505 8.27001C8.03042 8.45002 7.71618 8.70923 7.48232 9.04765C7.24847 9.38606 7.13154 9.78568 7.13154 10.2465C7.13154 10.6857 7.22655 11.0421 7.41655 11.3158C7.61387 11.5822 7.8733 11.7946 8.19485 11.953C8.5164 12.1042 8.97314 12.277 9.56509 12.4714C9.98164 12.6154 10.2813 12.7702 10.464 12.9358C10.654 13.1014 10.749 13.3066 10.749 13.5515C10.749 13.7603 10.6978 13.9439 10.5955 14.1023C10.4932 14.2535 10.3434 14.3759 10.1461 14.4695C9.95606 14.5559 9.72952 14.5991 9.46643 14.5991C9.21065 14.5991 8.9768 14.5667 8.76487 14.5019C8.56025 14.4371 8.33004 14.3471 8.07427 14.2319C7.99388 14.1959 7.91715 14.1671 7.84407 14.1455C7.7783 14.1167 7.71618 14.1023 7.65771 14.1023C7.46771 14.1023 7.31059 14.1743 7.18635 14.3183C7.06212 14.4551 7 14.6207 7 14.8151C7 15.0671 7.16443 15.2939 7.49329 15.4955C7.72714 15.6396 8.0158 15.7512 8.35928 15.8304ZM16.9484 9.06537C17.0972 8.69516 16.9132 8.27621 16.5375 8.12961C16.1617 7.98301 15.7365 8.16428 15.5877 8.53449L12.9838 15.0134C12.835 15.3836 13.019 15.8026 13.3947 15.9492C13.7705 16.0958 14.1957 15.9145 14.3445 15.5443L16.9484 9.06537Z" fill="white"/>
</svg>
