<svg width="96" height="96" viewBox="0 0 96 96" fill="none" xmlns="http://www.w3.org/2000/svg">
<path fill-rule="evenodd" clip-rule="evenodd" d="M65.334 8C71.7801 8 77.3403 10.153 81.4093 14.2303C85.6626 18.4881 87.9958 24.6824 87.9878 31.6745L87.9936 59.7246C88.0006 59.8325 88.0019 59.9407 87.9973 60.0487L87.9878 64.3296C87.9878 78.4861 78.8757 88 65.3139 88H30.6538C17.104 88 8 78.4861 8 64.3296V31.6704C8 17.5139 17.104 8 30.6538 8H65.334ZM66.4428 51.4291C64.0856 51.4291 61.3195 55.3301 58.8702 58.774C55.5108 63.5049 52.0352 68.4001 46.7996 68.4001C43.2599 68.4001 40.0167 67.037 37.1585 65.8302C32.6125 63.9138 30.5519 63.3004 28.5355 64.9602C24.499 68.2868 20.5106 74.3444 18.678 77.3252C21.5705 80.3078 25.6795 81.9862 30.6538 81.9862H65.3139C75.4362 81.9862 81.9746 75.0582 81.9746 64.3296L81.9745 61.1262L81.8821 61.0287C78.3727 57.4127 72.3128 51.4291 66.4428 51.4291ZM65.334 14.0138H30.6538C20.5476 14.0138 14.0132 20.9458 14.0132 31.6704V64.3296C14.0132 67.0101 14.4211 69.4533 15.1907 71.6105C17.5105 68.1076 21.0142 63.3649 24.7151 60.3175C29.7342 56.188 35.138 58.4573 39.4916 60.2895C42.0532 61.3679 44.4745 62.3863 46.7996 62.3863C48.9323 62.3863 51.6062 58.6176 53.9714 55.294C57.2546 50.6593 60.9828 45.4153 66.4428 45.4153C72.4349 45.4153 77.862 49.098 81.9788 52.7527L81.9746 31.6704C81.9825 26.2059 80.3149 21.6434 77.1559 18.4801C74.2375 15.5574 70.1526 14.0138 65.334 14.0138ZM35.4884 24.7966C41.225 24.8006 45.8913 29.4674 45.8953 35.2006V35.2046C45.8953 40.9418 41.229 45.6085 35.4884 45.6085C29.7478 45.6085 25.0815 40.9418 25.0815 35.2046C25.0815 29.4634 29.7478 24.7966 35.4884 24.7966ZM35.4844 30.8105C33.0631 30.8105 31.0947 32.779 31.0947 35.2046C31.0947 37.6261 33.0631 39.5947 35.4884 39.5947C37.9097 39.5947 39.882 37.6261 39.882 35.2086C39.878 32.783 37.9057 30.8145 35.4844 30.8105Z" fill="#DADCDF"/>
</svg>
