<svg width="24" height="24" viewBox="0 0 24 24" fill="none" xmlns="http://www.w3.org/2000/svg">
<g id="copy">
<path id="vector" fill-rule="evenodd" clip-rule="evenodd" d="M13.3966 22C15.2458 22 16.7023 20.594 17.0964 18.9149H17.1207C19.2539 18.9149 20.8966 17.0156 20.8966 14.8192V7.66427C20.9624 7.54705 21 7.41103 21 7.26596C21 7.01907 20.8908 6.79838 20.7193 6.65202C20.7077 6.63751 20.6955 6.62339 20.6829 6.60967L16.6484 2.24797C16.5019 2.08963 16.2987 2 16.0862 2H10.7069C8.91554 2 7.29169 3.30332 6.91132 5.08576C6.90071 5.08531 6.89004 5.08509 6.87932 5.08509C4.83005 5.08509 3 6.79072 3 8.96807V17.9043C3 20.1188 4.65933 22 6.87932 22H13.3966ZM4.55173 8.96807C4.55173 7.75799 5.58919 6.70993 6.82757 6.68143V14.8192C6.82757 17.0338 8.4869 18.9149 10.7069 18.9149H15.4699C15.1225 19.773 14.3166 20.4043 13.3966 20.4043H6.87932C5.58205 20.4043 4.55173 19.3067 4.55173 17.9043V8.96807ZM15.1034 3.59575H10.7069C9.4458 3.59575 8.3793 4.65608 8.3793 5.88298V14.8192C8.3793 16.2216 9.40963 17.3192 10.7069 17.3192H17.1207C18.2978 17.3192 19.3448 16.2398 19.3448 14.8192V8.06384H17.9483C16.3818 8.06384 15.1034 6.74917 15.1034 5.1383V3.59575ZM18.4103 6.46809H17.9483C17.2388 6.46809 16.6552 5.86786 16.6552 5.1383V4.57064L18.4103 6.46809Z" fill="white"/>
</g>
</svg>
