<svg width="20" height="20" viewBox="0 0 20 20" fill="none" xmlns="http://www.w3.org/2000/svg">
<path d="M10.0052 12.3208L4.62018 6.88124L4.5441 6.81291C4.39677 6.70577 4.21667 6.65473 4.03566 6.66879C3.85466 6.68286 3.68442 6.76109 3.55504 6.88973C3.41307 7.03376 3.33337 7.22874 3.33337 7.43199C3.33337 7.63523 3.41307 7.83021 3.55504 7.97424L9.47262 13.9518L9.5487 14.0201C9.69604 14.1272 9.87614 14.1783 10.0571 14.1642C10.2382 14.1501 10.4084 14.0719 10.5378 13.9432L16.4554 7.96569L16.523 7.88887C16.6155 7.75636 16.6657 7.5984 16.6667 7.43626C16.667 7.33307 16.647 7.23083 16.6079 7.13553C16.5687 7.04023 16.5111 6.95381 16.4385 6.88123L16.3624 6.81291C16.215 6.70577 16.0349 6.65473 15.8539 6.66879C15.6729 6.68286 15.5027 6.76109 15.3733 6.88973L10.0052 12.3208Z" fill="black"/>
</svg>
