<svg width="20" height="20" viewBox="0 0 20 20" fill="none" xmlns="http://www.w3.org/2000/svg">
<g id="upload">
<path id="vector" fill-rule="evenodd" clip-rule="evenodd" d="M6.14033 7.17503C6.48533 7.17503 6.76533 7.44782 6.76533 7.78393C6.76533 8.12005 6.48533 8.39284 6.14033 8.39284H5.36283C4.01366 8.39284 2.91699 9.46126 2.91699 10.7749V14.7328C2.91699 16.0472 4.01366 17.1156 5.36283 17.1156H14.6378C15.9862 17.1156 17.0837 16.0472 17.0837 14.7328V10.7676C17.0837 9.45801 15.9903 8.39284 14.647 8.39284H13.8612C13.5162 8.39284 13.2362 8.12005 13.2362 7.78393C13.2362 7.44782 13.5162 7.17503 13.8612 7.17503H14.647C16.6795 7.17503 18.3337 8.7866 18.3337 10.7676V14.7328C18.3337 16.7186 16.6753 18.3334 14.6378 18.3334H5.36283C3.32533 18.3334 1.66699 16.7186 1.66699 14.7328V10.7749C1.66699 8.78984 3.32533 7.17503 5.36283 7.17503H6.14033ZM10.4425 1.83907L12.8725 4.21623C13.1158 4.45493 13.115 4.83975 12.8708 5.07682C12.6258 5.31389 12.2308 5.31389 11.9875 5.0752L10.6245 3.74271L10.625 12.6527H9.37499L9.37449 3.74271L8.01333 5.0752C7.89166 5.19535 7.73083 5.25462 7.57083 5.25462C7.41166 5.25462 7.25166 5.19535 7.12999 5.07682C6.88583 4.83975 6.88416 4.45493 7.12833 4.21623L9.55749 1.83907C9.79166 1.60931 10.2083 1.60931 10.4425 1.83907Z" fill="white"/>
</g>
</svg>
